<svg width="709" height="214" viewBox="0 0 709 214" fill="none" xmlns="http://www.w3.org/2000/svg">
<path d="M210.062 0C227.706 0.0355292 245.35 -0.0142125 262.994 0.0213166C263.022 4.66853 262.994 9.30864 263.008 13.9487C250.992 13.963 238.969 13.9488 226.946 13.9559C226.946 19.136 226.939 24.3162 226.953 29.5034C232.645 29.5745 238.351 29.3329 244.043 29.6598C251.994 30.2282 260.258 33.1132 265.488 39.3876C270.455 45.186 271.563 53.514 269.794 60.7691C268.217 67.4912 263.214 73.0906 257.075 76.0751C251.546 78.96 245.215 79.7772 239.054 79.7701C229.397 79.763 219.741 79.7843 210.084 79.763C210.048 53.173 210.091 26.5829 210.062 0ZM226.946 42.8198C226.939 50.6077 226.946 58.3957 226.946 66.1837C232.616 65.999 238.337 66.603 243.964 65.8071C250.409 64.8407 255.199 58.0973 253.643 51.6878C252.513 46.6285 247.546 43.2248 242.522 42.9477C237.342 42.6563 232.14 42.8979 226.946 42.8198Z" fill="black"/>
<path d="M374.172 30.3991C378.393 24.3662 385.321 20.458 392.583 19.5484C400.748 18.4541 409.708 19.7261 416.267 25.0484C421.447 29.1271 424.29 35.5934 424.588 42.1095C419.379 42.1237 414.171 42.0953 408.969 42.1308C408.443 38.656 406.632 35.3305 403.59 33.4688C398.801 30.797 392.114 32.1045 388.895 36.6024C385.747 40.9015 385.094 46.4511 385.328 51.6313C385.52 56.1364 386.529 60.9755 389.777 64.3152C393.834 68.8629 401.892 69.0406 405.985 64.4502C407.74 62.6595 408.408 60.1867 408.984 57.8276C414.178 57.8418 419.372 57.8276 424.574 57.8347C424.233 63.7609 421.98 69.7227 417.582 73.8299C411.975 79.3085 403.789 81.2697 396.136 80.8789C389.244 80.6444 382.195 78.2782 377.249 73.3325C371.927 68.2874 369.12 61.0323 368.594 53.8057C367.919 45.7121 369.283 37.0714 374.172 30.3991Z" fill="black"/>
<path d="M517.127 23.4561C524.929 16.7127 537.507 18.3612 544.762 25.1331C551.178 31.1446 553.551 40.2259 553.559 48.7742C553.779 57.0596 552.251 65.8708 546.893 72.465C540.2 81.1271 526.109 83.7704 517.354 76.7357C514.953 74.9521 513.631 72.2092 511.94 69.8288C511.826 80.6012 511.926 91.3808 511.89 102.153C506.347 102.16 500.812 102.146 495.284 102.16C495.277 74.7744 495.277 47.3886 495.284 20.0027C500.727 19.9885 506.17 20.0027 511.613 19.9956C511.663 23.4419 511.528 26.8953 511.719 30.3488C513.723 28.2241 514.775 25.3036 517.127 23.4561ZM521.973 32.5374C518.037 33.0348 514.867 36.1045 513.368 39.6574C511.329 44.2762 511.243 49.5061 511.833 54.4446C512.487 58.9853 514.42 63.8457 518.577 66.2332C522.932 68.4503 528.98 67.9315 532.248 64.0446C535.432 60.513 536.483 55.5745 536.654 50.9415C536.782 45.8679 536.007 40.4177 532.767 36.3248C530.266 33.1343 525.888 31.8694 521.973 32.5374Z" fill="black"/>
<path d="M662.527 25.2043C667.281 21.289 673.456 19.3917 679.552 19.207C686.09 18.9654 692.89 20.5073 698.191 24.4795C703.236 27.9898 706.391 33.6602 707.869 39.5225C709.099 44.2763 709.02 49.2291 708.985 54.0966C695.406 54.1037 681.833 54.0966 668.261 54.1037C668.133 59.1275 670.279 64.4996 674.898 66.9511C681.094 70.1274 690.623 68.7844 693.373 61.6146C698.461 61.9486 703.549 62.2683 708.637 62.6449C707.535 67.8748 704.458 72.6784 700.039 75.7126C693.324 80.4735 684.654 81.5109 676.653 80.6227C669.583 79.8482 662.633 76.5439 658.263 70.8166C652.735 63.86 651.292 54.4945 652.117 45.8538C652.778 38.0019 656.274 30.1713 662.527 25.2043ZM674.216 33.4684C670.507 35.4864 668.659 39.7215 668.233 43.7505C676.632 43.85 685.031 43.786 693.43 43.7932C693.324 41.029 692.627 38.1937 690.865 36.0123C687.063 31.0382 679.375 30.2494 674.216 33.4684Z" fill="black"/>
<path d="M281.128 20.0027C286.422 19.9885 291.723 20.0027 297.024 19.9956C297.031 26.0995 297.024 32.1963 297.024 38.3002C306.759 38.5631 317.531 36.9004 326.108 42.6348C336.454 49.0158 337.556 65.608 328.51 73.5594C323.536 78.0858 316.615 79.6846 310.049 79.7486C300.413 79.7983 290.778 79.7699 281.142 79.7628C281.107 59.838 281.142 39.9204 281.128 20.0027ZM297.031 51.3537C297.017 56.477 297.031 61.6003 297.024 66.7236C301.614 66.6525 306.212 66.8302 310.795 66.6454C314.923 66.4891 319.365 63.2346 318.974 58.7437C318.81 54.5371 314.675 51.6592 310.752 51.4318C306.183 51.24 301.607 51.3963 297.031 51.3537Z" fill="black"/>
<path d="M340.995 19.9959C346.53 19.9959 352.066 19.9888 357.608 20.003C357.601 39.9278 357.608 59.8525 357.601 79.7844C352.066 79.756 346.53 79.7844 340.995 79.7631C341.002 59.8454 340.995 39.9207 340.995 19.9959Z" fill="black"/>
<path d="M431.047 20.017C449.11 19.9743 467.173 20.0099 485.243 19.9956C485.236 24.3231 485.243 28.6434 485.236 32.9638C478.834 32.9425 472.431 32.9922 466.036 32.9425C465.88 48.5469 466 64.1584 465.979 79.7699C460.7 79.777 455.427 79.7628 450.162 79.7841C450.154 64.1726 450.154 48.5682 450.162 32.9638C443.795 32.9638 437.428 32.9638 431.061 32.9638C431.054 28.6434 431.075 24.3302 431.047 20.017Z" fill="black"/>
<path d="M564.665 79.7628C564.644 59.8381 564.637 39.9062 564.672 19.9814C569.931 20.017 575.196 19.9886 580.461 19.9957C580.461 26.0996 580.447 32.1964 580.469 38.2932C588.832 38.5632 597.601 37.3268 605.574 40.5173C610.874 42.5425 615.316 46.8912 617.057 52.3414C619.181 59.1488 618.058 67.2281 613.063 72.5362C608.096 77.759 600.649 79.6776 593.643 79.7415C583.986 79.8055 574.322 79.7628 564.665 79.7628ZM580.469 66.7165C584.604 66.7023 588.747 66.7307 592.89 66.7165C595.59 66.7378 598.411 65.9633 600.4 64.0589C602.475 62.0906 603.101 58.7438 601.779 56.1928C600.393 53.0733 596.84 51.4603 593.572 51.3892C589.202 51.2755 584.832 51.3821 580.469 51.3466C580.454 56.4699 580.454 61.5932 580.469 66.7165Z" fill="black"/>
<path d="M624.518 19.9957C630.025 20.0028 635.539 19.9815 641.046 20.0099C641.032 39.9347 641.032 59.8594 641.046 79.7842C635.532 79.7558 630.025 79.7842 624.518 79.7629C624.525 59.8452 624.518 39.9205 624.518 19.9957Z" fill="black"/>
<path d="M229.454 152.328C237.804 150.722 247.084 151.596 254.183 156.591C260.763 161.018 264.721 168.593 265.779 176.338C266.71 183.21 266.241 190.444 263.477 196.867C260.429 204.101 254.055 209.899 246.48 212.017C240.561 213.673 234.208 213.715 228.239 212.337C220.004 210.432 212.983 204.236 209.913 196.384C206.723 188.283 206.602 179.067 209.089 170.767C211.903 161.544 219.911 154.055 229.454 152.328ZM233.455 164.713C229.952 165.737 227.323 168.757 226.008 172.068C224.026 177.163 223.841 182.819 224.722 188.177C225.454 192.526 227.571 196.995 231.529 199.262C235.722 201.344 241.414 200.868 244.675 197.315C248.143 193.471 249.251 188.113 249.344 183.082C249.472 177.738 248.491 172.032 245.002 167.804C242.238 164.529 237.47 163.498 233.455 164.713Z" fill="black"/>
<path d="M407.022 157.003C412.181 153.116 418.739 151.432 425.149 151.617C433.825 151.617 442.857 155.469 447.681 162.908C452.329 169.844 452.968 178.442 452.748 186.542C439.133 186.542 425.525 186.521 411.918 186.549C411.889 191.744 414.185 197.322 419.109 199.624C425.234 202.424 434.457 201.06 437.037 194.046C442.16 194.352 447.284 194.643 452.4 195.076C451.163 200.42 447.98 205.351 443.361 208.379C436.454 213.118 427.622 213.95 419.5 212.919C412.301 211.974 405.352 208.208 401.181 202.182C396.242 195.29 395.048 186.4 395.823 178.129C396.605 170.014 400.3 161.871 407.022 157.003ZM416.657 166.802C413.822 169.076 412.202 172.629 411.946 176.218C420.359 176.26 428.78 176.225 437.193 176.232C437.08 172.864 435.886 169.46 433.406 167.108C428.865 163.001 421.347 162.923 416.657 166.802Z" fill="black"/>
<path d="M271.18 152.349C289.236 152.335 307.292 152.349 325.355 152.342C325.326 156.705 325.44 161.075 325.291 165.438C318.889 165.346 312.479 165.417 306.077 165.396C306.091 180.972 306.091 196.541 306.077 212.117C300.811 212.117 295.546 212.124 290.28 212.117C290.273 196.541 290.273 180.972 290.28 165.396C283.914 165.381 277.547 165.424 271.18 165.374C271.173 161.033 271.18 156.691 271.18 152.349Z" fill="black"/>
<path d="M333.271 152.356C338.479 152.313 343.688 152.37 348.896 152.328C348.989 159.725 348.719 167.129 349.031 174.519C349.024 178.15 352.009 181.078 355.519 181.526C360.081 182.122 365.027 182.286 369.39 180.801C369.475 171.314 369.39 161.828 369.425 152.342C374.662 152.328 379.899 152.356 385.136 152.328C385.15 172.26 385.122 192.184 385.15 212.116C379.906 212.123 374.662 212.116 369.425 212.123C369.411 206.105 369.425 200.086 369.418 194.074C360.358 195.773 350.417 195.318 342.231 190.735C336.703 187.622 333.612 181.369 333.377 175.159C333.121 167.563 333.328 159.952 333.271 152.356Z" fill="black"/>
<path d="M458.859 165.374C458.916 161.011 458.753 156.655 458.952 152.299C476.979 152.385 495.014 152.335 513.041 152.328C513.048 156.677 513.041 161.025 513.041 165.374C506.618 165.417 500.194 165.388 493.777 165.395C493.763 180.964 493.77 196.54 493.77 212.109C488.526 212.13 483.282 212.116 478.045 212.116C478.052 196.547 478.059 180.971 478.038 165.395C471.643 165.374 465.255 165.431 458.859 165.374Z" fill="black"/>
<path d="M523.082 152.342C528.383 152.335 533.684 152.342 538.985 152.342C538.971 158.474 538.978 164.607 538.978 170.739C548.912 170.988 560.025 169.233 568.623 175.415C578.351 182.016 579.31 197.777 570.741 205.686C566.086 210.169 559.464 211.903 553.161 212.109C543.142 212.138 533.122 212.116 523.103 212.116C523.053 192.192 523.089 172.267 523.082 152.342ZM538.978 183.785C538.978 188.909 538.971 194.032 538.978 199.162C543.213 199.12 547.441 199.198 551.676 199.127C554.532 199.077 557.545 198.111 559.442 195.887C561.645 193.243 561.418 188.916 558.86 186.592C557.026 184.659 554.326 183.814 551.718 183.792C547.469 183.757 543.22 183.8 538.978 183.785Z" fill="black"/>
<path d="M582.948 152.342C588.484 152.335 594.019 152.349 599.562 152.335C599.54 172.26 599.576 192.192 599.547 212.116C594.012 212.123 588.484 212.116 582.955 212.123C582.948 192.192 582.948 172.267 582.948 152.342Z" fill="black"/>
<path d="M0.660645 48.0849C31.2157 32.4166 61.714 16.6416 92.2833 1.00879C92.3046 19.4058 92.134 37.8099 92.198 56.214C79.7059 62.3321 67.1002 68.23 54.7005 74.5471C42.9404 68.8269 31.1731 63.1209 19.4343 57.3581C13.238 54.132 6.75745 51.4886 0.660645 48.0849Z" fill="#A82A1C"/>
<path d="M92.1982 56.2142C110.673 47.2395 129.099 38.1796 147.624 29.3115C147.588 66.8161 147.709 104.328 147.546 141.832C136.681 147.41 125.809 152.989 114.88 158.453C108.542 161.551 102.466 165.267 95.8861 167.833C95.95 143.453 95.95 119.072 95.8861 94.6923C82.1931 87.8991 68.4078 81.3049 54.7007 74.5473C67.1004 68.2302 79.7061 62.3323 92.1982 56.2142Z" fill="#DD4433"/>
<path d="M0.532938 48.0142L0.660848 48.0852C6.75765 51.4889 13.2382 54.1323 19.4345 57.3583C31.1733 63.1212 42.9406 68.8272 54.7007 74.5474C68.4079 81.305 82.1932 87.8992 95.8861 94.6924C95.9501 119.073 95.9501 143.453 95.8861 167.833C96.014 182.968 95.9074 198.104 95.8151 213.239C63.853 197.478 31.9763 181.533 0 165.8C0.163434 126.541 0.383715 87.2739 0.532938 48.0142Z" fill="#111111"/>
</svg>
